<?xml version="1.0" standalone="no"?>
<!DOCTYPE svg PUBLIC "-//W3C//DTD SVG 20010904//EN"
 "http://www.w3.org/TR/2001/REC-SVG-20010904/DTD/svg10.dtd">
<svg version="1.0" xmlns="http://www.w3.org/2000/svg"
 width="2816.000000pt" height="1536.000000pt" viewBox="0 0 2816.000000 1536.000000"
 preserveAspectRatio="xMidYMid meet">

<g transform="translate(0.000000,1536.000000) scale(0.100000,-0.100000)"
fill="#000000" stroke="none">
<path d="M7 15353 c-4 -3 -7 -3459 -7 -7680 l0 -7673 14080 0 14080 0 0 7680
0 7680 -14073 0 c-7741 0 -14077 -3 -14080 -7z m13346 -4889 c167 -37 330
-146 433 -290 25 -35 108 -193 184 -351 77 -158 170 -346 206 -418 73 -141
693 -1318 848 -1610 53 -99 126 -238 163 -308 65 -123 69 -127 83 -106 14 20
310 563 448 821 l57 108 258 0 259 0 -58 -107 c-190 -357 -828 -1544 -911
-1696 l-65 -118 -67 123 c-207 378 -386 710 -820 1523 -126 236 -233 430 -237
432 -5 1 -24 -35 -43 -80 -54 -128 -653 -1458 -916 -2032 -230 -502 -313 -648
-478 -843 -235 -277 -613 -512 -968 -601 -338 -85 -769 -61 -1076 60 -341 134
-621 352 -838 654 -80 111 -212 374 -259 515 -53 159 -109 490 -87 512 3 4
112 50 241 102 129 52 453 183 720 290 l485 196 6 -51 c4 -28 10 -146 14 -262
4 -117 11 -239 16 -271 24 -165 157 -296 300 -296 153 0 267 108 289 272 4 35
8 778 9 1651 1 885 6 1609 11 1635 51 269 249 478 515 543 62 16 135 18 638
18 483 1 579 -1 640 -15z m3037 9 c0 -7 -168 -461 -510 -1375 l-122 -328 -153
0 -152 0 67 178 c37 97 178 470 313 827 135 358 250 662 256 678 l11 27 145 0
c80 0 145 -3 145 -7z m2327 -35 c-14 -24 -129 -236 -257 -473 -358 -661 -829
-1527 -1015 -1865 -92 -168 -451 -825 -798 -1460 -894 -1638 -840 -1545 -929
-1625 -111 -100 -222 -143 -388 -152 -132 -6 -225 12 -336 67 -89 43 -164 105
-217 178 -44 60 -295 528 -776 1449 -132 254 -241 465 -241 471 0 5 49 115
109 244 60 130 112 246 116 257 3 12 9 21 13 21 4 0 105 -188 225 -418 565
-1084 888 -1695 914 -1730 74 -98 204 -106 288 -18 22 24 82 120 134 217 485
898 695 1284 1191 2194 315 578 616 1131 670 1230 54 99 165 304 248 455 82
151 209 385 282 520 73 135 161 298 197 363 l64 117 265 0 265 0 -24 -42z
m-3403 -232 c90 -38 114 -162 46 -240 -17 -18 -133 -105 -260 -192 -126 -88
-230 -161 -229 -164 0 -3 103 -77 230 -165 127 -88 244 -175 260 -192 53 -61
51 -153 -5 -209 -39 -39 -77 -51 -125 -37 -20 5 -123 71 -230 147 -106 75
-253 178 -327 228 -147 99 -174 131 -182 208 -6 64 11 109 56 152 35 34 600
430 659 462 35 19 65 20 107 2z m1337 1 c14 -7 169 -111 344 -232 217 -150
325 -231 341 -255 48 -72 40 -173 -19 -235 -37 -39 -634 -460 -673 -475 -39
-15 -76 -12 -112 10 -91 56 -96 181 -11 255 19 17 132 98 251 180 120 83 217
152 217 155 0 3 -108 79 -240 170 -264 182 -289 207 -289 291 0 104 103 177
191 136z m164 -4137 c27 -10 484 -452 524 -507 31 -42 39 -118 18 -159 -8 -16
-127 -140 -264 -275 -273 -271 -288 -282 -370 -260 -57 16 -103 63 -103 106 0
19 5 46 11 62 6 15 101 119 212 231 l202 204 -207 202 c-133 130 -209 212
-214 230 -22 90 36 176 120 176 25 0 56 -4 71 -10z m1505 -1115 l0 -105 -457
2 -458 3 -3 103 -3 102 461 0 460 0 0 -105z m8754 -3426 c21 -66 74 -154 131
-218 61 -67 236 -171 289 -171 9 0 16 -8 16 -17 0 -13 -17 -23 -61 -37 -66
-21 -154 -74 -218 -131 -67 -61 -171 -236 -171 -289 0 -9 -8 -16 -17 -16 -13
0 -23 17 -37 61 -21 66 -74 154 -131 218 -61 67 -236 171 -289 171 -9 0 -16 8
-16 18 0 12 17 22 61 36 66 21 154 74 218 131 67 61 171 236 171 289 0 9 8 16
18 16 12 0 22 -17 36 -61z"/>
<path d="M12185 10011 c-69 -17 -125 -62 -161 -131 -18 -34 -19 -100 -24
-1695 l-5 -1660 -23 -75 c-41 -132 -97 -225 -197 -326 -75 -76 -105 -99 -182
-137 -127 -63 -213 -80 -366 -75 -103 4 -136 9 -210 35 -105 37 -179 80 -258
152 -109 98 -199 250 -238 401 -13 50 -24 74 -33 72 -7 -1 -124 -46 -260 -100
-201 -79 -248 -101 -248 -116 0 -10 16 -66 36 -125 157 -470 555 -812 1043
-895 122 -21 330 -21 452 0 116 20 277 72 386 124 264 128 532 391 664 652 16
32 142 309 280 615 138 307 323 718 411 913 452 1002 424 939 461 1055 38 122
51 220 44 348 -9 180 -27 233 -201 588 -135 275 -163 316 -243 356 -49 23 -71
28 -138 28 -69 0 -86 -4 -126 -27 -49 -29 -100 -95 -120 -155 -6 -19 -9 -65
-7 -103 4 -76 -18 -30 318 -675 106 -203 193 -374 193 -380 0 -12 -222 -507
-233 -518 -4 -4 -43 61 -87 145 -44 84 -185 350 -312 591 -234 443 -306 594
-338 709 -30 111 -20 291 22 401 7 16 -3 17 -131 16 -77 -1 -152 -4 -169 -8z"/>
</g>
</svg>
