<svg xmlns="http://www.w3.org/2000/svg" viewBox="0 0 420 420" fill="none">
  <defs>
    <linearGradient id="bg" x1="0" y1="0" x2="420" y2="420" gradientUnits="userSpaceOnUse">
      <stop stop-color="#565A60" />
      <stop offset="1" stop-color="#35383D" />
    </linearGradient>
    <linearGradient id="helmet" x1="146" y1="92" x2="294" y2="203" gradientUnits="userSpaceOnUse">
      <stop stop-color="#E7E8EA" />
      <stop offset="1" stop-color="#B3B5B9" />
    </linearGradient>
    <linearGradient id="skin" x1="140" y1="170" x2="244" y2="280" gradientUnits="userSpaceOnUse">
      <stop stop-color="#D5D6D9" />
      <stop offset="1" stop-color="#A8AAAE" />
    </linearGradient>
    <linearGradient id="collar" x1="172" y1="292" x2="301" y2="370" gradientUnits="userSpaceOnUse">
      <stop stop-color="#E5E6E8" />
      <stop offset="1" stop-color="#B8BABE" />
    </linearGradient>
    <linearGradient id="shirt" x1="155" y1="289" x2="277" y2="370" gradientUnits="userSpaceOnUse">
      <stop stop-color="#94979D" />
      <stop offset="1" stop-color="#6A6D73" />
    </linearGradient>
  </defs>

  <rect width="420" height="420" fill="url(#bg)" />

  <path fill="#3A3D42" d="M147 312.5c13.4-19.6 40.8-27.4 72.8-25.7 42.8 2.2 78.2 22.5 94.2 52.2V420H115c0-47.9 12.5-84.8 32-107.5z" />
  <path fill="url(#shirt)" d="M171.4 289.4c20.2 17.9 49.5 19 71.6 4.4l18.8 126.2H164z" />

  <path fill="url(#skin)" d="M138.5 236.9c8.8-34.6 30.5-60.8 58.2-67.5 33.2-8 69.6 13.6 81.3 48.3 10.7 31.8-2.8 66.6-31.8 81.8-17.9 9.3-41.2 10-60.1 1.8-26.7-11.5-54.3-34.5-47.6-64.4z" />

  <path fill="#2C2E32" d="M167.7 206.2c6.8 0 12.2 4.8 14.1 11.5l-29.5 5.2c1.3-9.5 7-16.7 15.4-16.7zm46.8-13.8c7.2-1.6 13.9 1.9 18 8.2l-31.1 4.8c1.5-6.2 6.2-11.6 13.1-13z" />

  <path fill="#FAFBFC" d="M201.6 228.1c14.6 5.1 31.5 1.8 39.1-8.5-5.4 15.4-19.7 24.7-37.1 21.4-11.3-2.2-20.9-10-25.2-20 5.4 3.6 14 4.3 23.2 7.1z" opacity=".75" />

  <path fill="#27292D" d="M172.4 244.6c14.6 6.5 37 7.7 53.8 4.7 14.8-2.6 22 8 18.4 21.6-7.2 27.1-33.9 44.8-60.3 38.7-20.2-4.6-35.1-24.5-33.4-44.5.8-9.7 5.5-25.8 21.5-20.5z" />
  <path fill="#36393E" d="M206.8 254.9c5.4 2 9.4 6.2 10.8 11.5-3.8 4.5-10.2 6.2-16 4.1-5.5-2-9.3-6-10.7-10.8 4.8-4.2 10.5-6.4 15.9-4.8z" />

  <path fill="#1F2125" d="M224.4 277.8c6.3 12.5 6.8 25.1 1.1 39.8 20.4-7.3 34.7-24.1 40.1-46.9l-13.4-5.8c-7.5 5.6-17.1 10.1-27.8 12.9z" />

  <path fill="#A7A9AE" d="M194.8 290.3c8.8 7.7 19.2 10.7 31.3 8.1l4.4 24.3-36.5 9.9z" />
  <path fill="url(#collar)" d="M187.9 303.2c17.3 5.8 34.8 3.5 51.4-5.1l11.8 15.7-28.7 20.3c-13.5-4.5-22.9-13-34.5-22.3z" />

  <path fill="url(#helmet)" d="M123.2 186.1c3.1-47 36.6-88.3 81.8-100.4 44.6-12 93.8 7 120.8 44.9 2.9 4.1 5.7 8.5 8.3 13 5.2 9 2 20.7-7.2 25.5-5.5 2.8-11.8 2.8-17.4.3-8.5-3.8-16.5-8.9-24.7-12.9-34.4-16.5-73.6-16.3-107.8.4-8.9 4.4-17.5 9.7-26.6 13.6-10.2 4.3-21.9-.8-26.6-11.9-.4 9 .4 19.7-.6 27.7h-18c-.6-24.7 0 24.7 0 0z" />

  <path fill="#CFD1D4" d="M112.8 173.1c6.2-53.4 42.7-99 94.8-112.9 52-13.8 108.8 6.2 139.8 49.4 7.2 10.2 13.1 21.2 17.5 32.8 2.2 5.8-.7 12.3-6.5 14.5a11.4 11.4 0 0 1-13.6-4.9c-27.7-49.3-84.2-73.2-138.8-58.8-41.9 11.1-74.8 44.8-86.2 86.2-.6 2.1-2.2 3.8-4.2 4.7a9.9 9.9 0 0 1-9.7-.6c-2.8-1.8-4.2-5-4-8.5z" />

  <path stroke="#EFEFF1" stroke-width="5" d="M214 90v94m-29-87c9.8 25.8 10 56.6.3 84.6m58.2-84.5c9.4 25.7 9.2 56.3-.4 84" opacity=".82" />

  <path fill="#D4D6DA" d="m285.2 168.4 34.8 7v26.2c0 4-3.3 7.4-7.4 7.4h-19.9c-4.1 0-7.4-3.3-7.4-7.4z" opacity=".7" />
  <path fill="#BFC1C6" d="M294.4 172.1h16.4v30.7h-16.4z" />

  <path fill="#23262A" d="M160.8 247.2c2.7 1.1 3.2 4.8 1 6.7-4.5 4.1-6.9 9.2-7.6 15.6-.3 2.7-3.5 4.2-5.8 2.7-3.9-2.6-5.8-8.5-4.8-14.3 1.5-8.9 10.2-14.2 17.2-10.7z" />

  <path fill="#111316" d="M181.4 289.7c16.1 10.2 40.8 8.2 58.9-3.8-9.3 24.1-35.4 37-61.4 31.1-10.8-2.5-20-8.4-26.4-16.8 10.5-1.7 21.1-5.4 28.9-10.5z" />

  <path fill="#C4C7CB" d="M198.6 223.4c4.5 1.5 9.1.9 13.7-.8-3 6.1-8.6 10.2-15.4 9.9-4.7-.2-9-2.6-11.8-6.2 4.4-.7 8.8-2.4 13.5-2.9z" />

  <path fill="#0E1012" d="M167.7 238.7c4.1 18.9 3.8 39.6-5.5 58.5-6.9-8.1-10.8-18.6-9.8-29.8 1-11 6.1-21.1 15.3-28.7z" opacity=".66" />
</svg>
