<svg xmlns="http://www.w3.org/2000/svg" viewBox="0 0 801 600" preserveAspectRatio="xMidYMid slice">
  <defs>
    <linearGradient id="sky" x1="400.5" x2="400.5" y1="0" y2="600" gradientUnits="userSpaceOnUse">
      <stop offset="0" stop-color="#010c1b"/>
      <stop offset=".42" stop-color="#03233a"/>
      <stop offset=".72" stop-color="#02172b"/>
      <stop offset="1" stop-color="#010713"/>
    </linearGradient>
    <radialGradient id="centerGlow" cx="0" cy="0" r="1" gradientTransform="matrix(0 208 -294 0 400 300)" gradientUnits="userSpaceOnUse">
      <stop offset="0" stop-color="#0a6d83" stop-opacity=".62"/>
      <stop offset=".36" stop-color="#07465b" stop-opacity=".42"/>
      <stop offset=".72" stop-color="#04243a" stop-opacity=".08"/>
      <stop offset="1" stop-color="#02101f" stop-opacity="0"/>
    </radialGradient>
    <radialGradient id="horizonGlow" cx="0" cy="0" r="1" gradientTransform="matrix(365 0 0 88 403 307)" gradientUnits="userSpaceOnUse">
      <stop offset="0" stop-color="#14b4c7" stop-opacity=".28"/>
      <stop offset=".52" stop-color="#0c6a7a" stop-opacity=".16"/>
      <stop offset="1" stop-color="#032033" stop-opacity="0"/>
    </radialGradient>
    <filter id="softBlur" x="-20%" y="-60%" width="140%" height="220%">
      <feGaussianBlur stdDeviation="4"/>
    </filter>
  </defs>

  <rect width="801" height="600" fill="url(#sky)"/>
  <rect width="801" height="600" fill="url(#centerGlow)"/>
  <rect width="801" height="600" fill="url(#horizonGlow)"/>

  <g fill="none" stroke-linecap="round" stroke-linejoin="round" filter="url(#softBlur)" opacity=".3">
    <path d="M-24 292C80 250 168 257 266 297C355 334 449 325 545 283C650 238 711 254 828 299" stroke="#1ba8bd" stroke-width="3"/>
    <path d="M-21 315C92 282 177 286 270 316C363 347 453 343 550 307C645 271 719 275 824 320" stroke="#11859e" stroke-width="2.3"/>
  </g>

  <g fill="none" stroke-linecap="round" stroke-linejoin="round">
    <path d="M-28 281C72 240 159 252 258 294C345 331 439 326 536 284C639 239 711 253 829 297" stroke="#18a8be" stroke-opacity=".28" stroke-width="1.5"/>
    <path d="M-24 302C82 268 169 274 264 305C356 335 444 336 540 299C641 260 719 270 825 309" stroke="#2ed6df" stroke-opacity=".24" stroke-width="1.2"/>
    <path d="M-24 321C92 291 180 291 274 320C366 349 457 350 555 318C649 286 724 288 826 326" stroke="#2dd5df" stroke-opacity=".18" stroke-width="1"/>
    <path d="M-25 342C102 321 193 315 286 341C381 368 473 369 566 341C662 312 732 318 824 350" stroke="#2dd5df" stroke-opacity=".12" stroke-width=".9"/>
  </g>

  <g fill="none" stroke="#0d8ca5" stroke-linecap="round" stroke-opacity=".13" stroke-width=".9">
    <path d="M-40 359C94 343 188 342 284 359C383 377 471 377 570 361C674 345 748 348 842 370"/>
    <path d="M-50 383C80 373 178 371 282 386C382 400 476 400 578 387C684 374 760 378 850 399"/>
    <path d="M-58 413C70 407 173 405 282 419C384 432 482 432 586 421C696 410 776 415 860 438"/>
    <path d="M-66 449C58 447 168 446 283 459C388 471 488 471 596 462C709 453 794 460 872 484"/>
    <path d="M-74 496C45 496 160 497 286 508C394 518 500 520 609 513C728 507 812 515 886 540"/>
  </g>

  <g stroke="#0c6f86" stroke-opacity=".11" stroke-width=".8">
    <path d="M400 314L-104 600"/>
    <path d="M400 314L16 600"/>
    <path d="M400 314L123 600"/>
    <path d="M400 314L221 600"/>
    <path d="M400 314L313 600"/>
    <path d="M400 314L400 600"/>
    <path d="M400 314L488 600"/>
    <path d="M400 314L582 600"/>
    <path d="M400 314L683 600"/>
    <path d="M400 314L796 600"/>
    <path d="M400 314L914 600"/>
  </g>

  <g fill="#2bd4e4" opacity=".22">
    <circle cx="33" cy="356" r="1.1"/>
    <circle cx="99" cy="344" r=".9"/>
    <circle cx="168" cy="346" r="1"/>
    <circle cx="235" cy="362" r=".9"/>
    <circle cx="324" cy="374" r=".9"/>
    <circle cx="438" cy="374" r=".9"/>
    <circle cx="529" cy="360" r="1"/>
    <circle cx="633" cy="344" r=".9"/>
    <circle cx="722" cy="352" r="1"/>
    <circle cx="783" cy="377" r=".9"/>
    <circle cx="70" cy="391" r=".9"/>
    <circle cx="164" cy="386" r="1"/>
    <circle cx="272" cy="400" r=".9"/>
    <circle cx="386" cy="408" r="1"/>
    <circle cx="506" cy="401" r=".9"/>
    <circle cx="624" cy="387" r=".9"/>
    <circle cx="746" cy="401" r="1"/>
    <circle cx="42" cy="441" r=".9"/>
    <circle cx="143" cy="438" r=".9"/>
    <circle cx="262" cy="452" r="1"/>
    <circle cx="400" cy="462" r=".9"/>
    <circle cx="544" cy="454" r="1"/>
    <circle cx="678" cy="438" r=".9"/>
    <circle cx="804" cy="458" r=".9"/>
    <circle cx="92" cy="507" r=".9"/>
    <circle cx="227" cy="513" r=".9"/>
    <circle cx="377" cy="523" r="1"/>
    <circle cx="535" cy="520" r=".9"/>
    <circle cx="706" cy="513" r="1"/>
  </g>

  <rect width="801" height="600" fill="url(#sky)" opacity=".1"/>
  <rect width="801" height="600" fill="none"/>
</svg>
